<svg width="11" height="13" viewBox="0 0 11 13" fill="none" xmlns="http://www.w3.org/2000/svg">
<path fill-rule="evenodd" clip-rule="evenodd" d="M5.01256 12.8087L5.5 12.3498L5.01256 12.8087ZM5.5 12.3498L5.98675 12.8087C5.92287 12.8693 5.84696 12.9174 5.76338 12.9503C5.67979 12.9831 5.59017 13 5.49966 13C5.40914 13 5.31952 12.9831 5.23594 12.9503C5.15235 12.9174 5.07644 12.8693 5.01256 12.8087L5.00844 12.8042L4.99675 12.7931L4.95413 12.7522C4.71177 12.5161 4.47341 12.2765 4.23913 12.0333C3.6509 11.4239 3.08765 10.7934 2.55063 10.1431C1.93738 9.39561 1.31037 8.55063 0.833937 7.71604C0.367812 6.8977 0 6.01111 0 5.19992C0 2.24962 2.4695 0 5.5 0C8.5305 0 11 2.24962 11 5.19992C11 6.01111 10.6322 6.8977 10.1661 7.71539C9.68963 8.55128 9.06331 9.39561 8.44938 10.1431C7.6982 11.0528 6.89588 11.9238 6.04587 12.7522L6.00325 12.7931L5.99156 12.8042L5.98744 12.8081L5.5 12.3498ZM5.5 7.1499C6.04701 7.1499 6.57161 6.94445 6.95841 6.57876C7.3452 6.21307 7.5625 5.71709 7.5625 5.19992C7.5625 4.68276 7.3452 4.18678 6.95841 3.82109C6.57161 3.4554 6.04701 3.24995 5.5 3.24995C4.95299 3.24995 4.42839 3.4554 4.04159 3.82109C3.6548 4.18678 3.4375 4.68276 3.4375 5.19992C3.4375 5.71709 3.6548 6.21307 4.04159 6.57876C4.42839 6.94445 4.95299 7.1499 5.5 7.1499Z" fill="#144388"/>
</svg>
