<svg width="14" height="11" viewBox="0 0 14 11" fill="none" xmlns="http://www.w3.org/2000/svg">
<path fill-rule="evenodd" clip-rule="evenodd" d="M1.04996 1.5119C1.15199 1.20335 1.45339 0.977221 1.80519 0.977221H12.1948C12.5466 0.977221 12.848 1.20335 12.95 1.5119L7 5.52988L1.04996 1.5119ZM0 1.74732V1.74146V1.74732ZM0 1.74732V9.25854C0 10.2175 0.811181 11 1.80519 11H12.1948C13.1888 11 14 10.2175 14 9.25854V1.7473V1.74146M1.01299 2.67979L6.70955 6.52659C6.88394 6.64435 7.11606 6.64435 7.29045 6.52659L12.987 2.67979V9.25854C12.987 9.67776 12.6294 10.0228 12.1948 10.0228H1.80519C1.37064 10.0228 1.01299 9.67776 1.01299 9.25854V2.67979ZM2.03439e-05 1.73314C0.00469407 0.778019 0.814056 0 1.80519 0H12.1948C13.186 0 13.9953 0.77803 14 1.73316" fill="white"/>
</svg>
