<svg width="13" height="23" viewBox="0 0 13 23" fill="none" xmlns="http://www.w3.org/2000/svg">
<path d="M6.50048 0C3.30625 0 0.707773 2.66273 0.707773 5.93616C0.707773 9.20934 3.30625 11.8709 6.50048 11.8709C9.6946 11.8709 12.2918 9.20934 12.2918 5.93616C12.2918 2.66273 9.69462 0 6.50048 0ZM6.50048 3.47804C7.82249 3.47804 8.89752 4.58128 8.89752 5.93616C8.89752 7.29047 7.82251 8.39286 6.50048 8.39286C5.17821 8.39286 4.10205 7.29049 4.10205 5.93616C4.10205 4.58128 5.17821 3.47804 6.50048 3.47804ZM1.72466 12.0728C1.15155 12.0637 0.58798 12.3532 0.261053 12.8872C-0.238562 13.7006 0.000776631 14.774 0.792647 15.2856C1.84008 15.9591 2.97667 16.437 4.15537 16.7124L0.918184 20.0316C0.255487 20.7111 0.256048 21.8116 0.91888 22.4911C1.2511 22.8303 1.6844 23 2.1188 23C2.55275 23 2.98751 22.83 3.31873 22.4904L6.49911 19.2294L9.6823 22.4904C10.3444 23.1697 11.4181 23.1697 12.0814 22.4904C12.7444 21.8113 12.7444 20.7096 12.0814 20.0316L8.84283 16.7131C10.0219 16.4377 11.1588 15.9596 12.2056 15.2857C12.999 14.774 13.2387 13.6995 12.7392 12.8872C12.2392 12.0736 11.1923 11.8285 10.3983 12.3409C8.02686 13.8697 4.97127 13.8687 2.60058 12.3409C2.32769 12.1648 2.02486 12.0776 1.72466 12.0729V12.0728Z" fill="white"/>
</svg>
