<svg width="14" height="14" viewBox="0 0 14 14" fill="none" xmlns="http://www.w3.org/2000/svg">
<path d="M12.3852 14H12.2937C1.7168 13.3915 0.21505 4.46385 0.00512686 1.73923C-0.0117879 1.52739 0.0132485 1.31429 0.0788016 1.11214C0.144355 0.909999 0.249136 0.722779 0.387142 0.561213C0.525148 0.399646 0.693666 0.266909 0.88304 0.170606C1.07241 0.0743029 1.27892 0.0163271 1.49073 5.04857e-07H4.45656C4.67217 -0.000208291 4.88287 0.0643519 5.06137 0.185318C5.23988 0.306285 5.37796 0.478084 5.45773 0.678462L6.27589 2.69231C6.35467 2.88806 6.37422 3.10266 6.33211 3.30943C6.29001 3.51621 6.1881 3.70605 6.03906 3.85539L4.89256 5.01308C5.07165 6.03117 5.55903 6.96967 6.28876 7.70159C7.01849 8.43352 7.95535 8.92355 8.97259 9.10538L10.1406 7.94769C10.2921 7.80024 10.4837 7.70067 10.6914 7.66141C10.8991 7.62215 11.1138 7.64494 11.3087 7.72692L13.3379 8.54C13.5352 8.62232 13.7035 8.76153 13.8214 8.9399C13.9393 9.11826 14.0015 9.32771 14 9.54154V12.3846C14 12.813 13.8298 13.2239 13.527 13.5269C13.2242 13.8298 12.8135 14 12.3852 14ZM1.61992 1.07692C1.47716 1.07692 1.34025 1.13365 1.23931 1.23464C1.13836 1.33562 1.08165 1.47258 1.08165 1.61539V1.65846C1.32925 4.84615 2.91713 12.3846 12.3529 12.9231C12.4236 12.9274 12.4945 12.9178 12.5615 12.8947C12.6284 12.8716 12.6902 12.8355 12.7432 12.7885C12.7962 12.7415 12.8394 12.6845 12.8704 12.6207C12.9013 12.5569 12.9193 12.4877 12.9234 12.4169V9.54154L10.8942 8.72846L9.34938 10.2631L9.09101 10.2308C4.40812 9.64385 3.77297 4.95923 3.77297 4.91077L3.74067 4.65231L5.26934 3.10692L4.46195 1.07692H1.61992Z" fill="white"/>
</svg>
