<svg width="25" height="15" viewBox="0 0 25 15" fill="none" xmlns="http://www.w3.org/2000/svg">
<path fill-rule="evenodd" clip-rule="evenodd" d="M24.4266 1.01571C24.5995 0.430714 24.4266 0 23.5985 0H20.8641C20.1683 0 19.8475 0.371786 19.6735 0.782143C19.6735 0.782143 18.2829 4.20643 16.3132 6.43071C15.6757 7.07571 15.3861 7.28036 15.0382 7.28036C14.8643 7.28036 14.6028 7.07571 14.6028 6.48964V1.01571C14.6028 0.312857 14.4112 0 13.832 0H9.53209C9.09773 0 8.83627 0.325714 8.83627 0.635357C8.83627 1.30071 9.82167 1.455 9.92271 3.32786V7.39714C9.92271 8.28964 9.76334 8.45143 9.41543 8.45143C8.48836 8.45143 6.2332 5.01107 4.89469 1.07464C4.63532 0.308571 4.37282 0 3.67388 0H0.93748C0.156247 0 0 0.371786 0 0.782143C0 1.51286 0.927064 5.14286 4.31762 9.94393C6.57799 13.2225 9.76021 15 12.6591 15C14.3976 15 14.6122 14.6057 14.6122 13.9254V11.4471C14.6122 10.6575 14.7768 10.5 15.3278 10.5C15.734 10.5 16.4288 10.7057 18.0517 12.2861C19.9058 14.16 20.211 15 21.2548 15H23.9891C24.7703 15 25.162 14.6057 24.937 13.8257C24.6891 13.05 23.8037 11.9239 22.6297 10.5879C21.9922 9.82714 21.036 9.0075 20.7454 8.59714C20.3402 8.07107 20.4558 7.83643 20.7454 7.36821C20.7454 7.36821 24.0787 2.62607 24.4255 1.01571H24.4266Z" fill="white"/>
</svg>
