<svg width="25" height="17" viewBox="0 0 25 17" fill="none" xmlns="http://www.w3.org/2000/svg">
<path d="M24.4765 2.6673C24.335 2.15255 24.0593 1.68653 23.6787 1.31876C23.2874 0.939689 22.8078 0.668529 22.2851 0.530877C20.3292 0.00526543 12.4927 0.00526555 12.4927 0.00526555C9.22579 -0.0326287 5.95966 0.13404 2.71278 0.504331C2.19013 0.652153 1.71142 0.929372 1.31922 1.31133C0.933851 1.68935 0.654721 2.15549 0.508908 2.66624C0.158635 4.59002 -0.0115514 6.54339 0.000642813 8.49999C-0.0118555 10.4548 0.157913 12.4076 0.508908 14.3337C0.651597 14.8424 0.929684 15.3064 1.31609 15.6812C1.7025 16.0561 2.18368 16.3268 2.71278 16.4702C4.6948 16.9947 12.4927 16.9947 12.4927 16.9947C15.7638 17.0327 19.0341 16.866 22.2851 16.4957C22.8078 16.358 23.2874 16.0868 23.6787 15.7078C24.0641 15.3329 24.338 14.8668 24.4755 14.3592C24.8349 12.4362 25.0097 10.482 24.9973 8.52442C25.0243 6.55853 24.8498 4.59514 24.4765 2.66624V2.6673ZM10.0014 12.1357V4.86531L16.5213 8.50106L10.0014 12.1357Z" fill="white"/>
</svg>
