<svg width="16" height="16" viewBox="0 0 16 16" fill="none" xmlns="http://www.w3.org/2000/svg">
<path d="M8 0C3.58065 0 0 3.58065 0 8C0 12.4194 3.58065 16 8 16C12.4194 16 16 12.4194 16 8C16 3.58065 12.4194 0 8 0ZM8 3.09677C9.56774 3.09677 10.8387 4.36774 10.8387 5.93548C10.8387 7.50323 9.56774 8.77419 8 8.77419C6.43226 8.77419 5.16129 7.50323 5.16129 5.93548C5.16129 4.36774 6.43226 3.09677 8 3.09677ZM8 14.1935C6.10645 14.1935 4.40968 13.3355 3.27419 11.9935C3.88065 10.8516 5.06774 10.0645 6.45161 10.0645C6.52903 10.0645 6.60645 10.0774 6.68064 10.1C7.1 10.2355 7.53871 10.3226 8 10.3226C8.46129 10.3226 8.90322 10.2355 9.31935 10.1C9.39355 10.0774 9.47097 10.0645 9.54839 10.0645C10.9323 10.0645 12.1194 10.8516 12.7258 11.9935C11.5903 13.3355 9.89355 14.1935 8 14.1935Z" fill="#144388"/>
</svg>
