<svg width="21" height="21" viewBox="0 0 21 21" fill="none" xmlns="http://www.w3.org/2000/svg">
<path d="M8.30967 0C10.5135 0 12.6271 0.875508 14.1855 2.43392C15.7439 3.99234 16.6193 6.106 16.6193 8.30993C16.6193 10.1311 16.0333 11.815 15.0405 13.1848L20.6089 18.7533C20.8496 18.9906 20.9895 19.3116 20.9994 19.6495C21.0093 19.9874 20.8885 20.316 20.662 20.567C20.4355 20.8179 20.121 20.9718 19.7838 20.9965C19.4467 21.0212 19.1131 20.9148 18.8525 20.6996L18.7527 20.6095L13.1844 15.041C11.7675 16.0699 10.0607 16.6227 8.30967 16.6199C6.10581 16.6199 3.99221 15.7443 2.43385 14.1859C0.875481 12.6275 0 10.5139 0 8.30993C0 6.106 0.875481 3.99234 2.43385 2.43392C3.99221 0.875508 6.10581 3.28411e-08 8.30967 0ZM8.30967 2.62419C6.80177 2.62419 5.35562 3.22322 4.28937 4.2895C3.22312 5.35579 2.62411 6.80198 2.62411 8.30993C2.62411 9.81788 3.22312 11.2641 4.28937 12.3304C5.35562 13.3966 6.80177 13.9957 8.30967 13.9957C9.81758 13.9957 11.2637 13.3966 12.33 12.3304C13.3962 11.2641 13.9952 9.81788 13.9952 8.30993C13.9952 6.80198 13.3962 5.35579 12.33 4.2895C11.2637 3.22322 9.81758 2.62419 8.30967 2.62419Z" fill="#888888"/>
</svg>
