<svg width="16" height="28" viewBox="0 0 16 28" fill="none" xmlns="http://www.w3.org/2000/svg">
<path d="M8.00059 0C4.06923 0 0.871105 3.24159 0.871105 7.22663C0.871105 11.2114 4.06923 14.4515 8.00059 14.4515C11.9318 14.4515 15.1284 11.2114 15.1284 7.22663C15.1284 3.24159 11.9318 0 8.00059 0ZM8.00059 4.23413C9.62767 4.23413 10.9508 5.57721 10.9508 7.22663C10.9508 8.87536 9.6277 10.2174 8.00059 10.2174C6.37318 10.2174 5.04867 8.87538 5.04867 7.22663C5.04867 5.57721 6.37318 4.23413 8.00059 4.23413ZM2.12266 14.6974C1.4173 14.6863 0.723668 15.0387 0.321296 15.6887C-0.293615 16.679 0.000955853 17.9857 0.975565 18.6086C2.26471 19.4285 3.6636 20.0102 5.1143 20.3455L1.13007 24.3862C0.314446 25.2135 0.315137 26.5532 1.13093 27.3805C1.53982 27.7934 2.07311 28 2.60776 28C3.14185 28 3.67694 27.7931 4.08459 27.3796L7.99891 23.4098L11.9167 27.3796C12.7316 28.2066 14.0531 28.2066 14.8695 27.3796C15.6854 26.5529 15.6854 25.2117 14.8695 24.3863L10.8835 20.3464C12.3346 20.0111 13.734 19.4291 15.0222 18.6086C15.9988 17.9858 16.2938 16.6776 15.6791 15.6888C15.0637 14.6983 13.7752 14.3999 12.7979 15.0238C9.87921 16.8849 6.11849 16.8837 3.20071 15.0238C2.86485 14.8093 2.49214 14.7032 2.12266 14.6974V14.6974Z" fill="#888888"/>
</svg>
