<svg width="30" height="18" viewBox="0 0 30 18" fill="none" xmlns="http://www.w3.org/2000/svg">
<path fill-rule="evenodd" clip-rule="evenodd" d="M29.3119 1.21886C29.5194 0.516857 29.3119 0 28.3182 0H25.037C24.202 0 23.817 0.446143 23.6083 0.938571C23.6083 0.938571 21.9395 5.04771 19.5758 7.71686C18.8109 8.49086 18.4634 8.73643 18.0459 8.73643C17.8371 8.73643 17.5234 8.49086 17.5234 7.78757V1.21886C17.5234 0.375428 17.2934 0 16.5984 0H11.4385C10.9173 0 10.6035 0.390857 10.6035 0.762428C10.6035 1.56086 11.786 1.746 11.9073 3.99343V8.87657C11.9073 9.94757 11.716 10.1417 11.2985 10.1417C10.186 10.1417 7.47984 6.01329 5.87363 1.28957C5.56238 0.370285 5.24739 0 4.40866 0H1.12498C0.187496 0 0 0.446143 0 0.938571C0 1.81543 1.11248 6.17143 5.18114 11.9327C7.89358 15.867 11.7123 18 15.1909 18C17.2771 18 17.5346 17.5269 17.5346 16.7104V13.7366C17.5346 12.789 17.7321 12.6 18.3934 12.6C18.8809 12.6 19.7146 12.8469 21.662 14.7433C23.887 16.992 24.2532 18 25.5057 18H28.7869C29.7244 18 30.1944 17.5269 29.9244 16.5909C29.6269 15.66 28.5644 14.3087 27.1557 12.7054C26.3907 11.7926 25.2432 10.809 24.8945 10.3166C24.4082 9.68529 24.547 9.40371 24.8945 8.84186C24.8945 8.84186 28.8944 3.15129 29.3106 1.21886H29.3119Z" fill="#888888"/>
</svg>
