<svg width="30" height="20" viewBox="0 0 30 20" fill="none" xmlns="http://www.w3.org/2000/svg">
<path d="M29.3718 3.138C29.202 2.53242 28.8711 1.98415 28.4144 1.55149C27.9449 1.10552 27.3693 0.786505 26.7422 0.624561C24.395 0.00619463 14.9913 0.00619477 14.9913 0.00619477C11.0709 -0.0383868 7.1516 0.157694 3.25533 0.59333C2.62816 0.767239 2.0537 1.09338 1.58306 1.54274C1.12062 1.98747 0.785666 2.53588 0.610689 3.13675C0.190362 5.40003 -0.0138616 7.6981 0.000771375 9.99999C-0.0142266 12.2998 0.189496 14.5971 0.610689 16.8632C0.781916 17.4616 1.11562 18.0075 1.57931 18.4485C2.043 18.8895 2.62042 19.208 3.25533 19.3767C5.63376 19.9938 14.9913 19.9938 14.9913 19.9938C18.9166 20.0384 22.8409 19.8424 26.7422 19.4067C27.3693 19.2447 27.9449 18.9257 28.4144 18.4797C28.8769 18.0388 29.2056 17.4903 29.3706 16.8932C29.8019 14.6308 30.0116 12.3318 29.9967 10.0287C30.0292 7.71592 29.8197 5.40605 29.3718 3.13675V3.138ZM12.0017 14.2773V5.7239L19.8256 10.0012L12.0017 14.2773Z" fill="#888888"/>
</svg>
